<svg width="62" height="62" viewBox="0 0 62 62" fill="none" xmlns="http://www.w3.org/2000/svg">
<path d="M44.5292 56V14.5H17.5L12.5293 18.353V56H44.5292Z" fill="white" stroke="#5B6082"/>
<path d="M49.47 51.1686V6H25.5L17.4756 13.5281V51.1686H49.47Z" fill="white" stroke="#5B6082"/>
<path d="M17.5 14H26V6" stroke="#5B6082"/>
<path d="M12.5293 18.3529H17.5" stroke="#5B6082"/>
<path d="M22.5293 21H43.5293M22.5293 25H43.5293M22.5293 29H43.5293M22.5293 33H35.5293" stroke="#5B6082" stroke-miterlimit="10"/>
<path d="M43.8567 42.3274V48.5796L40.7107 47.5442L37.6045 48.5796V42.3274M44.8921 39.1814C44.8921 41.4908 43.0201 43.3628 40.7107 43.3628C38.4014 43.3628 36.5293 41.4908 36.5293 39.1814C36.5293 36.8721 38.4014 35 40.7107 35C43.0201 35 44.8921 36.8721 44.8921 39.1814Z" stroke="#5B6082"/>
</svg>
